<svg width="2000" height="3000">
	<image xlink:href="http://www.dr.dk/assets/img/ratio-16-9.gif" x="0" y="0" height="39px" width="70px" />
	<image xlink:href="http://www.dr.dk/assets/img/ratio-16-9.gif" x="70" y="0" height="39px" width="70px" />
	<image xlink:href="http://www.dr.dk/assets/img/ratio-16-9.gif" x="140" y="0" height="39px" width="70px" />
	<image xlink:href="http://asset.dr.dk/drfront/images//2014/08/14/c=0,0,4992,3003;w=133;81690.jpg" x="0" y="39" height="80px" width="133px" />
	<image xlink:href="http://asset.dr.dk/drfront/images//2015/04/22/c=48,32,529,318;w=133;103587.jpg" x="133" y="39" height="80px" width="133px" />
	<image xlink:href="http://asset.dr.dk/drfront/images//2015/04/22/c=0,0,5058,3042;w=133;103560.jpg" x="266" y="39" height="80px" width="133px" />
	<image xlink:href="http://www.dr.dk/tjenester/drvejret/assets/graphics/icons/MeteoGroup/vejr/82/1.png" x="0" y="119" height="84px" width="84px" />
	<image xlink:href="http://www.dr.dk/Forside/drdk/DR.Frontpage/Content/img/oline-button_small.png" x="0" y="203" height="100px" width="100px" />
	<image xlink:href="http://www.dr.dk/Forside/drdk/DR.Frontpage/Content/img/ramasjang-button_small.png" x="100" y="203" height="100px" width="100px" />
	<image xlink:href="http://www.dr.dk/Forside/drdk/DR.Frontpage/Content/img/ultra-button_small.png" x="200" y="203" height="100px" width="100px" />
	<image xlink:href="http://asset.dr.dk/imagescaler/?file=%2Fmu%2Fbar%2F552b6b4aa11f9f1ab89c65a8&w=200&h=113&scaleAfter=crop&quality=80&server=www.dr.dk" x="0" y="303" height="113px" width="200px" />
	<image xlink:href="http://asset.dr.dk/imagescaler/?file=%2Fmu%2Fbar%2F55362fbb6187a408709641f5&w=300&h=169&scaleAfter=crop&quality=80&server=www.dr.dk" x="0" y="416" height="118px" width="210px" />
	<image xlink:href="http://asset.dr.dk/imagescaler/?file=%2Fmu%2Fbar%2F55362fc96187a408709641f9&w=300&h=169&scaleAfter=crop&quality=80&server=www.dr.dk" x="210" y="416" height="118px" width="210px" />
	<image xlink:href="http://asset.dr.dk/imagescaler/?file=%2Fmu%2Fbar%2F55362fd76187a408709641fe&w=300&h=169&scaleAfter=crop&quality=80&server=www.dr.dk" x="420" y="416" height="118px" width="210px" />
	<image xlink:href="http://asset.dr.dk/imagescaler/?file=%2Fmu%2Fbar%2F55362fe76187a40870964202&w=300&h=169&scaleAfter=crop&quality=80&server=www.dr.dk" x="630" y="416" height="118px" width="210px" />
	<image xlink:href="http://asset.dr.dk/drfront/images//2015/04/21/c=0,173,800,317;w=300;103516.jpg" x="0" y="534" height="119px" width="300px" />
	<image xlink:href="http://asset.dr.dk/drfront/images//2015/04/22/c=0,50,620,256;w=300;103610.jpg" x="0" y="653" height="124px" width="300px" />
	<image xlink:href="http://asset.dr.dk/drfront/images//2015/04/22/c=10,0,600,248;w=300;103608.jpg" x="300" y="653" height="124px" width="300px" />
	<image xlink:href="http://asset.dr.dk/drfront/images//2012/11/16/c=0,0,1600,661;w=300;27900.jpg" x="600" y="653" height="124px" width="300px" />
	<image xlink:href="http://asset.dr.dk/drfront/images//2015/04/22/c=85,254,642,278;w=286;103555.jpg" x="900" y="653" height="124px" width="286px" />
	<image xlink:href="http://asset.dr.dk/drfront/images//2015/04/22/c=0,867,5199,2149;w=300;103609.jpg" x="1186" y="653" height="124px" width="300px" />
	<image xlink:href="http://asset.dr.dk/drfront/images//2015/04/22/c=0,150,2048,847;w=300;103598.jpg" x="1486" y="653" height="124px" width="300px" />
	<image xlink:href="http://asset.dr.dk/drfront/images//2015/04/22/c=208,196,289,119;w=300;103572.jpg" x="1786" y="653" height="124px" width="300px" />
	<image xlink:href="http://asset.dr.dk/drfront/images//2014/08/21/c=0,0,620,256;w=300;82262.jpg" x="2086" y="653" height="124px" width="300px" />
	<image xlink:href="http://asset.dr.dk/drfront/images//2015/04/22/c=0,0,1000,413;w=300;103553.jpg" x="2386" y="653" height="124px" width="300px" />
	<image xlink:href="http://asset.dr.dk/drfront/images//2015/04/09/c=0,0,2592,1071;w=300;102454.jpg" x="2686" y="653" height="124px" width="300px" />
	<image xlink:href="http://www.dr.dk/assets/img/ratio-16-9.gif" x="2986" y="653" height="124px" width="220px" />
	<image xlink:href="http://asset.dr.dk/drfront/images//2015/04/22/w=300;103593.jpg" x="0" y="777" height="133px" width="300px" />
	<image xlink:href="http://asset.dr.dk/imagescaler/?file=%2Fmu%2Fbar%2F55374bb5a11f9f0adc2585cc&w=300&h=169&scaleAfter=crop&quality=80&server=www.dr.dk" x="300" y="777" height="133px" width="237px" />
	<image xlink:href="http://www.dr.dk/assets/img/ratio-none.gif" x="0" y="910" height="139px" width="220px" />
	<image xlink:href="http://asset.dr.dk/drfront/images//2015/04/22/c=0,0,620,310;w=300;103615.jpg" x="0" y="1049" height="150px" width="300px" />
	<image xlink:href="http://asset.dr.dk/drfront/images//2015/04/22/c=0,117,1000,500;w=300;103616.jpg" x="300" y="1049" height="150px" width="300px" />
	<image xlink:href="http://asset.dr.dk/drfront/images//2015/04/22/c=173,133,1734,867;w=300;103594.jpg" x="600" y="1049" height="150px" width="300px" />
	<image xlink:href="http://asset.dr.dk/drfront/images//2014/08/31/c=0,2,620,310;w=300;83095.jpg" x="900" y="1049" height="150px" width="300px" />
	<image xlink:href="http://asset.dr.dk/drfront/images//2015/04/22/c=0,14,620,310;w=300;103617.jpg" x="1200" y="1049" height="150px" width="300px" />
	<image xlink:href="http://asset.dr.dk/drfront/images//2015/04/22/c=0,47,1778,889;w=300;103605.jpg" x="1500" y="1049" height="150px" width="300px" />
	<image xlink:href="http://asset.dr.dk/drfront/images//2015/04/22/c=140,42,892,446;w=300;103583.jpg" x="1800" y="1049" height="150px" width="300px" />
	<image xlink:href="http://asset.dr.dk/drfront/images//2015/04/22/c=0,370,3000,1500;w=300;103612.jpg" x="2100" y="1049" height="150px" width="300px" />
	<image xlink:href="http://asset.dr.dk/drfront/images//2015/04/22/c=0,35,620,310;w=300;103611.jpg" x="2400" y="1049" height="150px" width="300px" />
	<image xlink:href="http://asset.dr.dk/drfront/images//2015/04/22/c=0,19,620,310;w=300;103604.jpg" x="2700" y="1049" height="150px" width="300px" />
	<image xlink:href="http://asset.dr.dk/drfront/images//2015/04/22/c=0,25,620,310;w=300;103586.jpg" x="3000" y="1049" height="150px" width="300px" />
	<image xlink:href="http://asset.dr.dk/drfront/images//2015/04/22/c=21,10,578,289;w=300;103603.jpg" x="3300" y="1049" height="150px" width="300px" />
	<image xlink:href="http://asset.dr.dk/drfront/images//2015/04/22/c=0,0,551,276;w=300;103584.jpg" x="3600" y="1049" height="150px" width="300px" />
	<image xlink:href="http://asset.dr.dk/drfront/images//2014/11/21/c=0,39,620,310;w=300;90169.jpg" x="3900" y="1049" height="150px" width="300px" />
	<image xlink:href="http://asset.dr.dk/drfront/images//2015/04/22/c=0,0,1024,512;w=300;103568.jpg" x="4200" y="1049" height="150px" width="300px" />
	<image xlink:href="http://asset.dr.dk/drfront/images//2015/04/22/c=0,0,1000,500;w=300;103569.jpg" x="4500" y="1049" height="150px" width="300px" />
	<image xlink:href="http://asset.dr.dk/drfront/images//2015/04/22/c=0,467,3888,1944;w=300;103547.jpg" x="4800" y="1049" height="150px" width="300px" />
	<image xlink:href="http://asset.dr.dk/drfront/images//2015/04/22/c=0,0,4629,2315;w=300;103548.jpg" x="5100" y="1049" height="150px" width="300px" />
	<image xlink:href="http://asset.dr.dk/drfront/images//2015/04/22/c=0,213,1280,640;w=300;103573.jpg" x="5400" y="1049" height="150px" width="300px" />
	<image xlink:href="http://asset.dr.dk/drfront/images//2015/04/22/c=74,74,852,426;w=300;103567.jpg" x="5700" y="1049" height="150px" width="300px" />
	<image xlink:href="http://asset.dr.dk/drfront/images//2015/04/22/c=0,59,594,297;w=300;103559.jpg" x="6000" y="1049" height="150px" width="300px" />
	<image xlink:href="http://asset.dr.dk/drfront/images//2015/04/22/c=0,130,3000,1500;w=300;103537.jpg" x="6300" y="1049" height="150px" width="300px" />
	<image xlink:href="http://asset.dr.dk/imagescaler/?file=%2Fmu%2Fbar%2F5534cd986187a4091c2ddfae&w=300&h=169&scaleAfter=crop&quality=80&server=www.dr.dk" x="0" y="1199" height="164px" width="291px" />
	<image xlink:href="http://asset.dr.dk/imagescaler/?file=%2Fmu%2Fbar%2F553766b9a11f9f0adc258661&w=300&h=169&scaleAfter=crop&quality=80&server=www.dr.dk" x="291" y="1199" height="164px" width="291px" />
	<image xlink:href="http://asset.dr.dk/imagescaler/?file=%2Fmu%2Fbar%2F55362def6187a408709641d8&w=300&h=169&scaleAfter=crop&quality=80&server=www.dr.dk" x="0" y="1363" height="169px" width="300px" />
	<image xlink:href="http://asset.dr.dk/imagescaler/?file=%2Fmu%2Fbar%2F553759336187a41300f9b222&w=300&h=169&scaleAfter=crop&quality=80&server=www.dr.dk" x="300" y="1363" height="169px" width="300px" />
	<image xlink:href="http://asset.dr.dk/drfront/images//2015/04/22/c=65,76,791,612;w=220;103599.jpg" x="0" y="1532" height="170px" width="220px" />
	<image xlink:href="http://asset.dr.dk/drfront/images//2015/04/22/c=0,0,2800,1624;w=300;103544.jpg" x="0" y="1702" height="174px" width="300px" />
	<image xlink:href="http://asset.dr.dk/drfront/images//2015/04/22/c=0,0,1000,587;w=300;103574.jpg" x="0" y="1876" height="176px" width="300px" />
	<image xlink:href="http://asset.dr.dk/drfront/images//2015/04/22/c=162,5,399,322;w=237;103590.jpg" x="0" y="2052" height="191px" width="237px" />
	<image xlink:href="http://www.dr.dk/assets/img/ratio-none.gif" x="0" y="2243" height="197px" width="300px" />
	<image xlink:href="http://asset.dr.dk/drfront/images//2015/04/22/c=484,0,2800,2558;w=220;103613.jpg" x="0" y="2440" height="201px" width="220px" />
	<image xlink:href="http://asset.dr.dk/drfront/images//2015/04/22/c=257,960,2795,947;w=620;103557.jpg" x="0" y="2641" height="210px" width="620px" />
	<image xlink:href="http://asset.dr.dk/drfront/images//2015/04/22/c=74,105,355,342;w=220;103549.jpg" x="0" y="2851" height="212px" width="220px" />
	<image xlink:href="http://asset.dr.dk/drfront/images//2015/04/22/c=523,95,1052,1205;w=199;103579.jpg" x="0" y="3063" height="228px" width="199px" />
	<image xlink:href="http://asset.dr.dk/imagescaler/?file=%2Fmu%2Fbar%2F55379ad06187a41300f9b340&w=500&h=281&scaleAfter=crop&quality=80&server=www.dr.dk" x="0" y="3291" height="247px" width="440px" />
	<image xlink:href="http://www.dr.dk/assets/img/ratio-16-9.gif" x="0" y="3538" height="259px" width="460px" />
	<image xlink:href="http://www.dr.dk/assets/img/ratio-16-9.gif" x="460" y="3538" height="259px" width="460px" />
	<image xlink:href="http://asset.dr.dk/drfront/images//2015/04/22/c=17,20,963,411;w=620;103577.jpg" x="0" y="3797" height="265px" width="620px" />
	<image xlink:href="http://asset.dr.dk/drfront/images//2015/04/22/c=6,24,1264,561;w=620;103575.jpg" x="0" y="4062" height="275px" width="620px" />
	<image xlink:href="http://asset.dr.dk/drfront/images//2015/04/22/c=41,46,484,236;w=593;103554.jpg" x="0" y="4337" height="289px" width="593px" />
	<image xlink:href="http://asset.dr.dk/drfront/images//2015/04/21/c=0,68,1024,477;w=620;103517.jpg" x="593" y="4337" height="289px" width="620px" />
</svg>